<svg xmlns="http://www.w3.org/2000/svg" width="600" height="400" fill="none" viewBox="0 0 600 400"><g clip-path="url(#clip0_326_1564)"><g clip-path="url(#clip1_326_1564)"><rect width="600" height="400" fill="#fff" rx="20"/><rect width="595" height="80" fill="#E1E1E1" transform="translate(3 78)"/><path fill="#000" d="M20.2812 139V104.641H27.2188V139H20.2812ZM45.2188 114.109V119.359H40.7188V129.391C40.7188 131.422 40.7578 132.609 40.8359 132.953C40.9297 133.281 41.125 133.555 41.4219 133.773C41.7344 133.992 42.1094 134.102 42.5469 134.102C43.1562 134.102 44.0391 133.891 45.1953 133.469L45.7578 138.578C44.2266 139.234 42.4922 139.562 40.5547 139.562C39.3672 139.562 38.2969 139.367 37.3438 138.977C36.3906 138.57 35.6875 138.055 35.2344 137.43C34.7969 136.789 34.4922 135.93 34.3203 134.852C34.1797 134.086 34.1094 132.539 34.1094 130.211V119.359H31.0859V114.109H34.1094V109.164L40.7188 105.32V114.109H45.2188ZM64.2031 131.078L70.7656 132.18C69.9219 134.586 68.5859 136.422 66.7578 137.688C64.9453 138.938 62.6719 139.562 59.9375 139.562C55.6094 139.562 52.4062 138.148 50.3281 135.32C48.6875 133.055 47.8672 130.195 47.8672 126.742C47.8672 122.617 48.9453 119.391 51.1016 117.062C53.2578 114.719 55.9844 113.547 59.2812 113.547C62.9844 113.547 65.9062 114.773 68.0469 117.227C70.1875 119.664 71.2109 123.406 71.1172 128.453H54.6172C54.6641 130.406 55.1953 131.93 56.2109 133.023C57.2266 134.102 58.4922 134.641 60.0078 134.641C61.0391 134.641 61.9062 134.359 62.6094 133.797C63.3125 133.234 63.8438 132.328 64.2031 131.078ZM64.5781 124.422C64.5312 122.516 64.0391 121.07 63.1016 120.086C62.1641 119.086 61.0234 118.586 59.6797 118.586C58.2422 118.586 57.0547 119.109 56.1172 120.156C55.1797 121.203 54.7188 122.625 54.7344 124.422H64.5781ZM76.0156 114.109H82.0859V117.508C84.2578 114.867 86.8438 113.547 89.8438 113.547C91.4375 113.547 92.8203 113.875 93.9922 114.531C95.1641 115.188 96.125 116.18 96.875 117.508C97.9688 116.18 99.1484 115.188 100.414 114.531C101.68 113.875 103.031 113.547 104.469 113.547C106.297 113.547 107.844 113.922 109.109 114.672C110.375 115.406 111.32 116.492 111.945 117.93C112.398 118.992 112.625 120.711 112.625 123.086V139H106.039V124.773C106.039 122.305 105.812 120.711 105.359 119.992C104.75 119.055 103.812 118.586 102.547 118.586C101.625 118.586 100.758 118.867 99.9453 119.43C99.1328 119.992 98.5469 120.82 98.1875 121.914C97.8281 122.992 97.6484 124.703 97.6484 127.047V139H91.0625V125.359C91.0625 122.938 90.9453 121.375 90.7109 120.672C90.4766 119.969 90.1094 119.445 89.6094 119.102C89.125 118.758 88.4609 118.586 87.6172 118.586C86.6016 118.586 85.6875 118.859 84.875 119.406C84.0625 119.953 83.4766 120.742 83.1172 121.773C82.7734 122.805 82.6016 124.516 82.6016 126.906V139H76.0156V114.109Z"/><path fill="#000" d="M20.5156 219V184.641H25.0625V201.68L42.125 184.641H48.2891L33.875 198.562L48.9219 219H42.9219L30.6875 201.609L25.0625 207.094V219H20.5156ZM52.1328 219V194.109H55.9297V197.883C56.8984 196.117 57.7891 194.953 58.6016 194.391C59.4297 193.828 60.3359 193.547 61.3203 193.547C62.7422 193.547 64.1875 194 65.6562 194.906L64.2031 198.82C63.1719 198.211 62.1406 197.906 61.1094 197.906C60.1875 197.906 59.3594 198.188 58.625 198.75C57.8906 199.297 57.3672 200.062 57.0547 201.047C56.5859 202.547 56.3516 204.188 56.3516 205.969V219H52.1328ZM84.4062 215.93C82.8438 217.258 81.3359 218.195 79.8828 218.742C78.4453 219.289 76.8984 219.562 75.2422 219.562C72.5078 219.562 70.4062 218.898 68.9375 217.57C67.4688 216.227 66.7344 214.516 66.7344 212.438C66.7344 211.219 67.0078 210.109 67.5547 209.109C68.1172 208.094 68.8438 207.281 69.7344 206.672C70.6406 206.062 71.6562 205.602 72.7812 205.289C73.6094 205.07 74.8594 204.859 76.5312 204.656C79.9375 204.25 82.4453 203.766 84.0547 203.203C84.0703 202.625 84.0781 202.258 84.0781 202.102C84.0781 200.383 83.6797 199.172 82.8828 198.469C81.8047 197.516 80.2031 197.039 78.0781 197.039C76.0938 197.039 74.625 197.391 73.6719 198.094C72.7344 198.781 72.0391 200.008 71.5859 201.773L67.4609 201.211C67.8359 199.445 68.4531 198.023 69.3125 196.945C70.1719 195.852 71.4141 195.016 73.0391 194.438C74.6641 193.844 76.5469 193.547 78.6875 193.547C80.8125 193.547 82.5391 193.797 83.8672 194.297C85.1953 194.797 86.1719 195.43 86.7969 196.195C87.4219 196.945 87.8594 197.898 88.1094 199.055C88.25 199.773 88.3203 201.07 88.3203 202.945V208.57C88.3203 212.492 88.4062 214.977 88.5781 216.023C88.7656 217.055 89.125 218.047 89.6562 219H85.25C84.8125 218.125 84.5312 217.102 84.4062 215.93ZM84.0547 206.508C82.5234 207.133 80.2266 207.664 77.1641 208.102C75.4297 208.352 74.2031 208.633 73.4844 208.945C72.7656 209.258 72.2109 209.719 71.8203 210.328C71.4297 210.922 71.2344 211.586 71.2344 212.32C71.2344 213.445 71.6562 214.383 72.5 215.133C73.3594 215.883 74.6094 216.258 76.25 216.258C77.875 216.258 79.3203 215.906 80.5859 215.203C81.8516 214.484 82.7812 213.508 83.375 212.273C83.8281 211.32 84.0547 209.914 84.0547 208.055V206.508ZM94.9062 219V184.641H99.125V204.234L109.109 194.109H114.57L105.055 203.344L115.531 219H110.328L102.102 206.273L99.125 209.133V219H94.9062ZM135.922 210.984L140.281 211.523C139.594 214.07 138.32 216.047 136.461 217.453C134.602 218.859 132.227 219.562 129.336 219.562C125.695 219.562 122.805 218.445 120.664 216.211C118.539 213.961 117.477 210.812 117.477 206.766C117.477 202.578 118.555 199.328 120.711 197.016C122.867 194.703 125.664 193.547 129.102 193.547C132.43 193.547 135.148 194.68 137.258 196.945C139.367 199.211 140.422 202.398 140.422 206.508C140.422 206.758 140.414 207.133 140.398 207.633H121.836C121.992 210.367 122.766 212.461 124.156 213.914C125.547 215.367 127.281 216.094 129.359 216.094C130.906 216.094 132.227 215.688 133.32 214.875C134.414 214.062 135.281 212.766 135.922 210.984ZM122.07 204.164H135.969C135.781 202.07 135.25 200.5 134.375 199.453C133.031 197.828 131.289 197.016 129.148 197.016C127.211 197.016 125.578 197.664 124.25 198.961C122.938 200.258 122.211 201.992 122.07 204.164ZM145.602 219V194.109H149.398V197.648C151.227 194.914 153.867 193.547 157.32 193.547C158.82 193.547 160.195 193.82 161.445 194.367C162.711 194.898 163.656 195.602 164.281 196.477C164.906 197.352 165.344 198.391 165.594 199.594C165.75 200.375 165.828 201.742 165.828 203.695V219H161.609V203.859C161.609 202.141 161.445 200.859 161.117 200.016C160.789 199.156 160.203 198.477 159.359 197.977C158.531 197.461 157.555 197.203 156.43 197.203C154.633 197.203 153.078 197.773 151.766 198.914C150.469 200.055 149.82 202.219 149.82 205.406V219H145.602ZM182.727 219L196.016 201.094L184.297 184.641H189.711L195.945 193.453C197.242 195.281 198.164 196.688 198.711 197.672C199.477 196.422 200.383 195.117 201.43 193.758L208.344 184.641H213.289L201.219 200.836L214.227 219H208.602L199.953 206.742C199.469 206.039 198.969 205.273 198.453 204.445C197.688 205.695 197.141 206.555 196.812 207.023L188.188 219H182.727ZM238.414 193.055L234.219 193.383C233.844 191.727 233.312 190.523 232.625 189.773C231.484 188.57 230.078 187.969 228.406 187.969C227.062 187.969 225.883 188.344 224.867 189.094C223.539 190.062 222.492 191.477 221.727 193.336C220.961 195.195 220.562 197.844 220.531 201.281C221.547 199.734 222.789 198.586 224.258 197.836C225.727 197.086 227.266 196.711 228.875 196.711C231.688 196.711 234.078 197.75 236.047 199.828C238.031 201.891 239.023 204.562 239.023 207.844C239.023 210 238.555 212.008 237.617 213.867C236.695 215.711 235.422 217.125 233.797 218.109C232.172 219.094 230.328 219.586 228.266 219.586C224.75 219.586 221.883 218.297 219.664 215.719C217.445 213.125 216.336 208.859 216.336 202.922C216.336 196.281 217.562 191.453 220.016 188.438C222.156 185.812 225.039 184.5 228.664 184.5C231.367 184.5 233.578 185.258 235.297 186.773C237.031 188.289 238.07 190.383 238.414 193.055ZM221.188 207.867C221.188 209.32 221.492 210.711 222.102 212.039C222.727 213.367 223.594 214.383 224.703 215.086C225.812 215.773 226.977 216.117 228.195 216.117C229.977 216.117 231.508 215.398 232.789 213.961C234.07 212.523 234.711 210.57 234.711 208.102C234.711 205.727 234.078 203.859 232.812 202.5C231.547 201.125 229.953 200.438 228.031 200.438C226.125 200.438 224.508 201.125 223.18 202.5C221.852 203.859 221.188 205.648 221.188 207.867ZM243.242 202.055C243.242 197.992 243.656 194.727 244.484 192.258C245.328 189.773 246.57 187.859 248.211 186.516C249.867 185.172 251.945 184.5 254.445 184.5C256.289 184.5 257.906 184.875 259.297 185.625C260.688 186.359 261.836 187.43 262.742 188.836C263.648 190.227 264.359 191.93 264.875 193.945C265.391 195.945 265.648 198.648 265.648 202.055C265.648 206.086 265.234 209.344 264.406 211.828C263.578 214.297 262.336 216.211 260.68 217.57C259.039 218.914 256.961 219.586 254.445 219.586C251.133 219.586 248.531 218.398 246.641 216.023C244.375 213.164 243.242 208.508 243.242 202.055ZM247.578 202.055C247.578 207.695 248.234 211.453 249.547 213.328C250.875 215.188 252.508 216.117 254.445 216.117C256.383 216.117 258.008 215.18 259.32 213.305C260.648 211.43 261.312 207.68 261.312 202.055C261.312 196.398 260.648 192.641 259.32 190.781C258.008 188.922 256.367 187.992 254.398 187.992C252.461 187.992 250.914 188.812 249.758 190.453C248.305 192.547 247.578 196.414 247.578 202.055Z"/><path fill="#000" d="M19.1562 287.961L23.4453 287.586C23.6484 289.305 24.1172 290.719 24.8516 291.828C25.6016 292.922 26.7578 293.812 28.3203 294.5C29.8828 295.172 31.6406 295.508 33.5938 295.508C35.3281 295.508 36.8594 295.25 38.1875 294.734C39.5156 294.219 40.5 293.516 41.1406 292.625C41.7969 291.719 42.125 290.734 42.125 289.672C42.125 288.594 41.8125 287.656 41.1875 286.859C40.5625 286.047 39.5312 285.367 38.0938 284.82C37.1719 284.461 35.1328 283.906 31.9766 283.156C28.8203 282.391 26.6094 281.672 25.3438 281C23.7031 280.141 22.4766 279.078 21.6641 277.812C20.8672 276.531 20.4688 275.102 20.4688 273.523C20.4688 271.789 20.9609 270.172 21.9453 268.672C22.9297 267.156 24.3672 266.008 26.2578 265.227C28.1484 264.445 30.25 264.055 32.5625 264.055C35.1094 264.055 37.3516 264.469 39.2891 265.297C41.2422 266.109 42.7422 267.312 43.7891 268.906C44.8359 270.5 45.3984 272.305 45.4766 274.32L41.1172 274.648C40.8828 272.477 40.0859 270.836 38.7266 269.727C37.3828 268.617 35.3906 268.062 32.75 268.062C30 268.062 27.9922 268.57 26.7266 269.586C25.4766 270.586 24.8516 271.797 24.8516 273.219C24.8516 274.453 25.2969 275.469 26.1875 276.266C27.0625 277.062 29.3438 277.883 33.0312 278.727C36.7344 279.555 39.2734 280.281 40.6484 280.906C42.6484 281.828 44.125 283 45.0781 284.422C46.0312 285.828 46.5078 287.453 46.5078 289.297C46.5078 291.125 45.9844 292.852 44.9375 294.477C43.8906 296.086 42.3828 297.344 40.4141 298.25C38.4609 299.141 36.2578 299.586 33.8047 299.586C30.6953 299.586 28.0859 299.133 25.9766 298.227C23.8828 297.32 22.2344 295.961 21.0312 294.148C19.8438 292.32 19.2188 290.258 19.1562 287.961ZM61.3906 295.227L62 298.953C60.8125 299.203 59.75 299.328 58.8125 299.328C57.2812 299.328 56.0938 299.086 55.25 298.602C54.4062 298.117 53.8125 297.484 53.4688 296.703C53.125 295.906 52.9531 294.242 52.9531 291.711V277.391H49.8594V274.109H52.9531V267.945L57.1484 265.414V274.109H61.3906V277.391H57.1484V291.945C57.1484 293.148 57.2188 293.922 57.3594 294.266C57.5156 294.609 57.7578 294.883 58.0859 295.086C58.4297 295.289 58.9141 295.391 59.5391 295.391C60.0078 295.391 60.625 295.336 61.3906 295.227ZM65.5625 269.492V264.641H69.7812V269.492H65.5625ZM65.5625 299V274.109H69.7812V299H65.5625ZM92.4688 289.883L96.6172 290.422C96.1641 293.281 95 295.523 93.125 297.148C91.2656 298.758 88.9766 299.562 86.2578 299.562C82.8516 299.562 80.1094 298.453 78.0312 296.234C75.9688 294 74.9375 290.805 74.9375 286.648C74.9375 283.961 75.3828 281.609 76.2734 279.594C77.1641 277.578 78.5156 276.07 80.3281 275.07C82.1562 274.055 84.1406 273.547 86.2812 273.547C88.9844 273.547 91.1953 274.234 92.9141 275.609C94.6328 276.969 95.7344 278.906 96.2188 281.422L92.1172 282.055C91.7266 280.383 91.0312 279.125 90.0312 278.281C89.0469 277.438 87.8516 277.016 86.4453 277.016C84.3203 277.016 82.5938 277.781 81.2656 279.312C79.9375 280.828 79.2734 283.234 79.2734 286.531C79.2734 289.875 79.9141 292.305 81.1953 293.82C82.4766 295.336 84.1484 296.094 86.2109 296.094C87.8672 296.094 89.25 295.586 90.3594 294.57C91.4688 293.555 92.1719 291.992 92.4688 289.883ZM100.25 299V264.641H104.469V284.234L114.453 274.109H119.914L110.398 283.344L120.875 299H115.672L107.445 286.273L104.469 289.133V299H100.25ZM141.266 290.984L145.625 291.523C144.938 294.07 143.664 296.047 141.805 297.453C139.945 298.859 137.57 299.562 134.68 299.562C131.039 299.562 128.148 298.445 126.008 296.211C123.883 293.961 122.82 290.812 122.82 286.766C122.82 282.578 123.898 279.328 126.055 277.016C128.211 274.703 131.008 273.547 134.445 273.547C137.773 273.547 140.492 274.68 142.602 276.945C144.711 279.211 145.766 282.398 145.766 286.508C145.766 286.758 145.758 287.133 145.742 287.633H127.18C127.336 290.367 128.109 292.461 129.5 293.914C130.891 295.367 132.625 296.094 134.703 296.094C136.25 296.094 137.57 295.688 138.664 294.875C139.758 294.062 140.625 292.766 141.266 290.984ZM127.414 284.164H141.312C141.125 282.07 140.594 280.5 139.719 279.453C138.375 277.828 136.633 277.016 134.492 277.016C132.555 277.016 130.922 277.664 129.594 278.961C128.281 280.258 127.555 281.992 127.414 284.164ZM150.898 299V274.109H154.695V277.883C155.664 276.117 156.555 274.953 157.367 274.391C158.195 273.828 159.102 273.547 160.086 273.547C161.508 273.547 162.953 274 164.422 274.906L162.969 278.82C161.938 278.211 160.906 277.906 159.875 277.906C158.953 277.906 158.125 278.188 157.391 278.75C156.656 279.297 156.133 280.062 155.82 281.047C155.352 282.547 155.117 284.188 155.117 285.969V299H150.898ZM165.242 291.57L169.414 290.914C169.648 292.586 170.297 293.867 171.359 294.758C172.438 295.648 173.938 296.094 175.859 296.094C177.797 296.094 179.234 295.703 180.172 294.922C181.109 294.125 181.578 293.195 181.578 292.133C181.578 291.18 181.164 290.43 180.336 289.883C179.758 289.508 178.32 289.031 176.023 288.453C172.93 287.672 170.781 287 169.578 286.438C168.391 285.859 167.484 285.07 166.859 284.07C166.25 283.055 165.945 281.938 165.945 280.719C165.945 279.609 166.195 278.586 166.695 277.648C167.211 276.695 167.906 275.906 168.781 275.281C169.438 274.797 170.328 274.391 171.453 274.062C172.594 273.719 173.812 273.547 175.109 273.547C177.062 273.547 178.773 273.828 180.242 274.391C181.727 274.953 182.82 275.719 183.523 276.688C184.227 277.641 184.711 278.922 184.977 280.531L180.852 281.094C180.664 279.812 180.117 278.812 179.211 278.094C178.32 277.375 177.055 277.016 175.414 277.016C173.477 277.016 172.094 277.336 171.266 277.977C170.438 278.617 170.023 279.367 170.023 280.227C170.023 280.773 170.195 281.266 170.539 281.703C170.883 282.156 171.422 282.531 172.156 282.828C172.578 282.984 173.82 283.344 175.883 283.906C178.867 284.703 180.945 285.359 182.117 285.875C183.305 286.375 184.234 287.109 184.906 288.078C185.578 289.047 185.914 290.25 185.914 291.688C185.914 293.094 185.5 294.422 184.672 295.672C183.859 296.906 182.68 297.867 181.133 298.555C179.586 299.227 177.836 299.562 175.883 299.562C172.648 299.562 170.18 298.891 168.477 297.547C166.789 296.203 165.711 294.211 165.242 291.57Z"/><path fill="#000" d="M19.3203 362.266C19.3203 356.562 20.8516 352.102 23.9141 348.883C26.9766 345.648 30.9297 344.031 35.7734 344.031C38.9453 344.031 41.8047 344.789 44.3516 346.305C46.8984 347.82 48.8359 349.938 50.1641 352.656C51.5078 355.359 52.1797 358.43 52.1797 361.867C52.1797 365.352 51.4766 368.469 50.0703 371.219C48.6641 373.969 46.6719 376.055 44.0938 377.477C41.5156 378.883 38.7344 379.586 35.75 379.586C32.5156 379.586 29.625 378.805 27.0781 377.242C24.5312 375.68 22.6016 373.547 21.2891 370.844C19.9766 368.141 19.3203 365.281 19.3203 362.266ZM24.0078 362.336C24.0078 366.477 25.1172 369.742 27.3359 372.133C29.5703 374.508 32.3672 375.695 35.7266 375.695C39.1484 375.695 41.9609 374.492 44.1641 372.086C46.3828 369.68 47.4922 366.266 47.4922 361.844C47.4922 359.047 47.0156 356.609 46.0625 354.531C45.125 352.438 43.7422 350.82 41.9141 349.68C40.1016 348.523 38.0625 347.945 35.7969 347.945C32.5781 347.945 29.8047 349.055 27.4766 351.273C25.1641 353.477 24.0078 357.164 24.0078 362.336ZM57.4766 379V354.109H61.2734V357.883C62.2422 356.117 63.1328 354.953 63.9453 354.391C64.7734 353.828 65.6797 353.547 66.6641 353.547C68.0859 353.547 69.5312 354 71 354.906L69.5469 358.82C68.5156 358.211 67.4844 357.906 66.4531 357.906C65.5312 357.906 64.7031 358.188 63.9688 358.75C63.2344 359.297 62.7109 360.062 62.3984 361.047C61.9297 362.547 61.6953 364.188 61.6953 365.969V379H57.4766ZM90.5469 370.984L94.9062 371.523C94.2188 374.07 92.9453 376.047 91.0859 377.453C89.2266 378.859 86.8516 379.562 83.9609 379.562C80.3203 379.562 77.4297 378.445 75.2891 376.211C73.1641 373.961 72.1016 370.812 72.1016 366.766C72.1016 362.578 73.1797 359.328 75.3359 357.016C77.4922 354.703 80.2891 353.547 83.7266 353.547C87.0547 353.547 89.7734 354.68 91.8828 356.945C93.9922 359.211 95.0469 362.398 95.0469 366.508C95.0469 366.758 95.0391 367.133 95.0234 367.633H76.4609C76.6172 370.367 77.3906 372.461 78.7812 373.914C80.1719 375.367 81.9062 376.094 83.9844 376.094C85.5312 376.094 86.8516 375.688 87.9453 374.875C89.0391 374.062 89.9062 372.766 90.5469 370.984ZM76.6953 364.164H90.5938C90.4062 362.07 89.875 360.5 89 359.453C87.6562 357.828 85.9141 357.016 83.7734 357.016C81.8359 357.016 80.2031 357.664 78.875 358.961C77.5625 360.258 76.8359 361.992 76.6953 364.164ZM98.6562 366.555C98.6562 361.945 99.9375 358.531 102.5 356.312C104.641 354.469 107.25 353.547 110.328 353.547C113.75 353.547 116.547 354.672 118.719 356.922C120.891 359.156 121.977 362.25 121.977 366.203C121.977 369.406 121.492 371.93 120.523 373.773C119.57 375.602 118.172 377.023 116.328 378.039C114.5 379.055 112.5 379.562 110.328 379.562C106.844 379.562 104.023 378.445 101.867 376.211C99.7266 373.977 98.6562 370.758 98.6562 366.555ZM102.992 366.555C102.992 369.742 103.688 372.133 105.078 373.727C106.469 375.305 108.219 376.094 110.328 376.094C112.422 376.094 114.164 375.297 115.555 373.703C116.945 372.109 117.641 369.68 117.641 366.414C117.641 363.336 116.938 361.008 115.531 359.43C114.141 357.836 112.406 357.039 110.328 357.039C108.219 357.039 106.469 357.828 105.078 359.406C103.688 360.984 102.992 363.367 102.992 366.555ZM125.258 371.57L129.43 370.914C129.664 372.586 130.312 373.867 131.375 374.758C132.453 375.648 133.953 376.094 135.875 376.094C137.812 376.094 139.25 375.703 140.188 374.922C141.125 374.125 141.594 373.195 141.594 372.133C141.594 371.18 141.18 370.43 140.352 369.883C139.773 369.508 138.336 369.031 136.039 368.453C132.945 367.672 130.797 367 129.594 366.438C128.406 365.859 127.5 365.07 126.875 364.07C126.266 363.055 125.961 361.938 125.961 360.719C125.961 359.609 126.211 358.586 126.711 357.648C127.227 356.695 127.922 355.906 128.797 355.281C129.453 354.797 130.344 354.391 131.469 354.062C132.609 353.719 133.828 353.547 135.125 353.547C137.078 353.547 138.789 353.828 140.258 354.391C141.742 354.953 142.836 355.719 143.539 356.688C144.242 357.641 144.727 358.922 144.992 360.531L140.867 361.094C140.68 359.812 140.133 358.812 139.227 358.094C138.336 357.375 137.07 357.016 135.43 357.016C133.492 357.016 132.109 357.336 131.281 357.977C130.453 358.617 130.039 359.367 130.039 360.227C130.039 360.773 130.211 361.266 130.555 361.703C130.898 362.156 131.438 362.531 132.172 362.828C132.594 362.984 133.836 363.344 135.898 363.906C138.883 364.703 140.961 365.359 142.133 365.875C143.32 366.375 144.25 367.109 144.922 368.078C145.594 369.047 145.93 370.25 145.93 371.688C145.93 373.094 145.516 374.422 144.688 375.672C143.875 376.906 142.695 377.867 141.148 378.555C139.602 379.227 137.852 379.562 135.898 379.562C132.664 379.562 130.195 378.891 128.492 377.547C126.805 376.203 125.727 374.211 125.258 371.57Z"/><path fill="#000" d="M328.953 303.945V299.727C326.844 299.461 325.125 298.992 323.797 298.32C322.484 297.633 321.344 296.531 320.375 295.016C319.422 293.5 318.867 291.648 318.711 289.461L322.953 288.664C323.281 290.93 323.859 292.594 324.688 293.656C325.875 295.156 327.297 295.992 328.953 296.164V282.734C327.219 282.406 325.445 281.734 323.633 280.719C322.289 279.969 321.25 278.93 320.516 277.602C319.797 276.273 319.438 274.766 319.438 273.078C319.438 270.078 320.5 267.648 322.625 265.789C324.047 264.539 326.156 263.773 328.953 263.492V261.477H331.438V263.492C333.891 263.727 335.836 264.445 337.273 265.648C339.117 267.18 340.227 269.281 340.602 271.953L336.242 272.609C335.992 270.953 335.469 269.688 334.672 268.812C333.891 267.922 332.812 267.336 331.438 267.055V279.219C333.562 279.75 334.969 280.164 335.656 280.461C336.969 281.039 338.039 281.742 338.867 282.57C339.695 283.398 340.328 284.383 340.766 285.523C341.219 286.664 341.445 287.898 341.445 289.227C341.445 292.148 340.516 294.586 338.656 296.539C336.797 298.492 334.391 299.539 331.438 299.68V303.945H328.953ZM328.953 267.008C327.312 267.258 326.016 267.914 325.062 268.977C324.125 270.039 323.656 271.297 323.656 272.75C323.656 274.188 324.055 275.391 324.852 276.359C325.664 277.328 327.031 278.102 328.953 278.68V267.008ZM331.438 296.164C333.078 295.961 334.43 295.25 335.492 294.031C336.57 292.812 337.109 291.305 337.109 289.508C337.109 287.977 336.727 286.75 335.961 285.828C335.211 284.891 333.703 284.055 331.438 283.32V296.164ZM346.344 291.055L350.398 290.68C350.742 292.586 351.398 293.969 352.367 294.828C353.336 295.688 354.578 296.117 356.094 296.117C357.391 296.117 358.523 295.82 359.492 295.227C360.477 294.633 361.281 293.844 361.906 292.859C362.531 291.859 363.055 290.516 363.477 288.828C363.898 287.141 364.109 285.422 364.109 283.672C364.109 283.484 364.102 283.203 364.086 282.828C363.242 284.172 362.086 285.266 360.617 286.109C359.164 286.938 357.586 287.352 355.883 287.352C353.039 287.352 350.633 286.32 348.664 284.258C346.695 282.195 345.711 279.477 345.711 276.102C345.711 272.617 346.734 269.812 348.781 267.688C350.844 265.562 353.422 264.5 356.516 264.5C358.75 264.5 360.789 265.102 362.633 266.305C364.492 267.508 365.898 269.227 366.852 271.461C367.82 273.68 368.305 276.898 368.305 281.117C368.305 285.508 367.828 289.008 366.875 291.617C365.922 294.211 364.5 296.188 362.609 297.547C360.734 298.906 358.531 299.586 356 299.586C353.312 299.586 351.117 298.844 349.414 297.359C347.711 295.859 346.688 293.758 346.344 291.055ZM363.617 275.891C363.617 273.469 362.969 271.547 361.672 270.125C360.391 268.703 358.844 267.992 357.031 267.992C355.156 267.992 353.523 268.758 352.133 270.289C350.742 271.82 350.047 273.805 350.047 276.242C350.047 278.43 350.703 280.211 352.016 281.586C353.344 282.945 354.977 283.625 356.914 283.625C358.867 283.625 360.469 282.945 361.719 281.586C362.984 280.211 363.617 278.312 363.617 275.891ZM372.43 290L376.859 289.625C377.188 291.781 377.945 293.406 379.133 294.5C380.336 295.578 381.781 296.117 383.469 296.117C385.5 296.117 387.219 295.352 388.625 293.82C390.031 292.289 390.734 290.258 390.734 287.727C390.734 285.32 390.055 283.422 388.695 282.031C387.352 280.641 385.586 279.945 383.398 279.945C382.039 279.945 380.812 280.258 379.719 280.883C378.625 281.492 377.766 282.289 377.141 283.273L373.18 282.758L376.508 265.109H393.594V269.141H379.883L378.031 278.375C380.094 276.938 382.258 276.219 384.523 276.219C387.523 276.219 390.055 277.258 392.117 279.336C394.18 281.414 395.211 284.086 395.211 287.352C395.211 290.461 394.305 293.148 392.492 295.414C390.289 298.195 387.281 299.586 383.469 299.586C380.344 299.586 377.789 298.711 375.805 296.961C373.836 295.211 372.711 292.891 372.43 290ZM401.516 299V294.195H406.32V299H401.516ZM413.141 291.055L417.195 290.68C417.539 292.586 418.195 293.969 419.164 294.828C420.133 295.688 421.375 296.117 422.891 296.117C424.188 296.117 425.32 295.82 426.289 295.227C427.273 294.633 428.078 293.844 428.703 292.859C429.328 291.859 429.852 290.516 430.273 288.828C430.695 287.141 430.906 285.422 430.906 283.672C430.906 283.484 430.898 283.203 430.883 282.828C430.039 284.172 428.883 285.266 427.414 286.109C425.961 286.938 424.383 287.352 422.68 287.352C419.836 287.352 417.43 286.32 415.461 284.258C413.492 282.195 412.508 279.477 412.508 276.102C412.508 272.617 413.531 269.812 415.578 267.688C417.641 265.562 420.219 264.5 423.312 264.5C425.547 264.5 427.586 265.102 429.43 266.305C431.289 267.508 432.695 269.227 433.648 271.461C434.617 273.68 435.102 276.898 435.102 281.117C435.102 285.508 434.625 289.008 433.672 291.617C432.719 294.211 431.297 296.188 429.406 297.547C427.531 298.906 425.328 299.586 422.797 299.586C420.109 299.586 417.914 298.844 416.211 297.359C414.508 295.859 413.484 293.758 413.141 291.055ZM430.414 275.891C430.414 273.469 429.766 271.547 428.469 270.125C427.188 268.703 425.641 267.992 423.828 267.992C421.953 267.992 420.32 268.758 418.93 270.289C417.539 271.82 416.844 273.805 416.844 276.242C416.844 278.43 417.5 280.211 418.812 281.586C420.141 282.945 421.773 283.625 423.711 283.625C425.664 283.625 427.266 282.945 428.516 281.586C429.781 280.211 430.414 278.312 430.414 275.891ZM439.859 291.055L443.914 290.68C444.258 292.586 444.914 293.969 445.883 294.828C446.852 295.688 448.094 296.117 449.609 296.117C450.906 296.117 452.039 295.82 453.008 295.227C453.992 294.633 454.797 293.844 455.422 292.859C456.047 291.859 456.57 290.516 456.992 288.828C457.414 287.141 457.625 285.422 457.625 283.672C457.625 283.484 457.617 283.203 457.602 282.828C456.758 284.172 455.602 285.266 454.133 286.109C452.68 286.938 451.102 287.352 449.398 287.352C446.555 287.352 444.148 286.32 442.18 284.258C440.211 282.195 439.227 279.477 439.227 276.102C439.227 272.617 440.25 269.812 442.297 267.688C444.359 265.562 446.938 264.5 450.031 264.5C452.266 264.5 454.305 265.102 456.148 266.305C458.008 267.508 459.414 269.227 460.367 271.461C461.336 273.68 461.82 276.898 461.82 281.117C461.82 285.508 461.344 289.008 460.391 291.617C459.438 294.211 458.016 296.188 456.125 297.547C454.25 298.906 452.047 299.586 449.516 299.586C446.828 299.586 444.633 298.844 442.93 297.359C441.227 295.859 440.203 293.758 439.859 291.055ZM457.133 275.891C457.133 273.469 456.484 271.547 455.188 270.125C453.906 268.703 452.359 267.992 450.547 267.992C448.672 267.992 447.039 268.758 445.648 270.289C444.258 271.82 443.562 273.805 443.562 276.242C443.562 278.43 444.219 280.211 445.531 281.586C446.859 282.945 448.492 283.625 450.43 283.625C452.383 283.625 453.984 282.945 455.234 281.586C456.5 280.211 457.133 278.312 457.133 275.891Z"/><path fill="#000" d="M328.953 383.945V379.727C326.844 379.461 325.125 378.992 323.797 378.32C322.484 377.633 321.344 376.531 320.375 375.016C319.422 373.5 318.867 371.648 318.711 369.461L322.953 368.664C323.281 370.93 323.859 372.594 324.688 373.656C325.875 375.156 327.297 375.992 328.953 376.164V362.734C327.219 362.406 325.445 361.734 323.633 360.719C322.289 359.969 321.25 358.93 320.516 357.602C319.797 356.273 319.438 354.766 319.438 353.078C319.438 350.078 320.5 347.648 322.625 345.789C324.047 344.539 326.156 343.773 328.953 343.492V341.477H331.438V343.492C333.891 343.727 335.836 344.445 337.273 345.648C339.117 347.18 340.227 349.281 340.602 351.953L336.242 352.609C335.992 350.953 335.469 349.688 334.672 348.812C333.891 347.922 332.812 347.336 331.438 347.055V359.219C333.562 359.75 334.969 360.164 335.656 360.461C336.969 361.039 338.039 361.742 338.867 362.57C339.695 363.398 340.328 364.383 340.766 365.523C341.219 366.664 341.445 367.898 341.445 369.227C341.445 372.148 340.516 374.586 338.656 376.539C336.797 378.492 334.391 379.539 331.438 379.68V383.945H328.953ZM328.953 347.008C327.312 347.258 326.016 347.914 325.062 348.977C324.125 350.039 323.656 351.297 323.656 352.75C323.656 354.188 324.055 355.391 324.852 356.359C325.664 357.328 327.031 358.102 328.953 358.68V347.008ZM331.438 376.164C333.078 375.961 334.43 375.25 335.492 374.031C336.57 372.812 337.109 371.305 337.109 369.508C337.109 367.977 336.727 366.75 335.961 365.828C335.211 364.891 333.703 364.055 331.438 363.32V376.164ZM361.602 379H357.383V352.117C356.367 353.086 355.031 354.055 353.375 355.023C351.734 355.992 350.258 356.719 348.945 357.203V353.125C351.305 352.016 353.367 350.672 355.133 349.094C356.898 347.516 358.148 345.984 358.883 344.5H361.602V379ZM384.758 379H380.539V352.117C379.523 353.086 378.188 354.055 376.531 355.023C374.891 355.992 373.414 356.719 372.102 357.203V353.125C374.461 352.016 376.523 350.672 378.289 349.094C380.055 347.516 381.305 345.984 382.039 344.5H384.758V379ZM397.953 379V374.195H402.758V379H397.953ZM422.469 379V370.773H407.562V366.906L423.242 344.641H426.688V366.906H431.328V370.773H426.688V379H422.469ZM422.469 366.906V351.414L411.711 366.906H422.469ZM436.297 371.055L440.352 370.68C440.695 372.586 441.352 373.969 442.32 374.828C443.289 375.688 444.531 376.117 446.047 376.117C447.344 376.117 448.477 375.82 449.445 375.227C450.43 374.633 451.234 373.844 451.859 372.859C452.484 371.859 453.008 370.516 453.43 368.828C453.852 367.141 454.062 365.422 454.062 363.672C454.062 363.484 454.055 363.203 454.039 362.828C453.195 364.172 452.039 365.266 450.57 366.109C449.117 366.938 447.539 367.352 445.836 367.352C442.992 367.352 440.586 366.32 438.617 364.258C436.648 362.195 435.664 359.477 435.664 356.102C435.664 352.617 436.688 349.812 438.734 347.688C440.797 345.562 443.375 344.5 446.469 344.5C448.703 344.5 450.742 345.102 452.586 346.305C454.445 347.508 455.852 349.227 456.805 351.461C457.773 353.68 458.258 356.898 458.258 361.117C458.258 365.508 457.781 369.008 456.828 371.617C455.875 374.211 454.453 376.188 452.562 377.547C450.688 378.906 448.484 379.586 445.953 379.586C443.266 379.586 441.07 378.844 439.367 377.359C437.664 375.859 436.641 373.758 436.297 371.055ZM453.57 355.891C453.57 353.469 452.922 351.547 451.625 350.125C450.344 348.703 448.797 347.992 446.984 347.992C445.109 347.992 443.477 348.758 442.086 350.289C440.695 351.82 440 353.805 440 356.242C440 358.43 440.656 360.211 441.969 361.586C443.297 362.945 444.93 363.625 446.867 363.625C448.82 363.625 450.422 362.945 451.672 361.586C452.938 360.211 453.57 358.312 453.57 355.891Z"/><path fill="#000" d="M320.492 137V102.641H331.625C335.844 102.641 338.594 102.812 339.875 103.156C341.844 103.672 343.492 104.797 344.82 106.531C346.148 108.25 346.812 110.477 346.812 113.211C346.812 115.32 346.43 117.094 345.664 118.531C344.898 119.969 343.922 121.102 342.734 121.93C341.562 122.742 340.367 123.281 339.148 123.547C337.492 123.875 335.094 124.039 331.953 124.039H327.43V137H320.492ZM327.43 108.453V118.203H331.227C333.961 118.203 335.789 118.023 336.711 117.664C337.633 117.305 338.352 116.742 338.867 115.977C339.398 115.211 339.664 114.32 339.664 113.305C339.664 112.055 339.297 111.023 338.562 110.211C337.828 109.398 336.898 108.891 335.773 108.688C334.945 108.531 333.281 108.453 330.781 108.453H327.43ZM358.766 137H352.18V112.109H358.297V115.648C359.344 113.977 360.281 112.875 361.109 112.344C361.953 111.812 362.906 111.547 363.969 111.547C365.469 111.547 366.914 111.961 368.305 112.789L366.266 118.531C365.156 117.812 364.125 117.453 363.172 117.453C362.25 117.453 361.469 117.711 360.828 118.227C360.188 118.727 359.68 119.641 359.305 120.969C358.945 122.297 358.766 125.078 358.766 129.312V137ZM371.164 108.734V102.641H377.75V108.734H371.164ZM371.164 137V112.109H377.75V137H371.164ZM406.227 119.469L399.734 120.641C399.516 119.344 399.016 118.367 398.234 117.711C397.469 117.055 396.469 116.727 395.234 116.727C393.594 116.727 392.281 117.297 391.297 118.438C390.328 119.562 389.844 121.453 389.844 124.109C389.844 127.062 390.336 129.148 391.32 130.367C392.32 131.586 393.656 132.195 395.328 132.195C396.578 132.195 397.602 131.844 398.398 131.141C399.195 130.422 399.758 129.195 400.086 127.461L406.555 128.562C405.883 131.531 404.594 133.773 402.688 135.289C400.781 136.805 398.227 137.562 395.023 137.562C391.383 137.562 388.477 136.414 386.305 134.117C384.148 131.82 383.07 128.641 383.07 124.578C383.07 120.469 384.156 117.273 386.328 114.992C388.5 112.695 391.438 111.547 395.141 111.547C398.172 111.547 400.578 112.203 402.359 113.516C404.156 114.812 405.445 116.797 406.227 119.469ZM425.656 129.078L432.219 130.18C431.375 132.586 430.039 134.422 428.211 135.688C426.398 136.938 424.125 137.562 421.391 137.562C417.062 137.562 413.859 136.148 411.781 133.32C410.141 131.055 409.32 128.195 409.32 124.742C409.32 120.617 410.398 117.391 412.555 115.062C414.711 112.719 417.438 111.547 420.734 111.547C424.438 111.547 427.359 112.773 429.5 115.227C431.641 117.664 432.664 121.406 432.57 126.453H416.07C416.117 128.406 416.648 129.93 417.664 131.023C418.68 132.102 419.945 132.641 421.461 132.641C422.492 132.641 423.359 132.359 424.062 131.797C424.766 131.234 425.297 130.328 425.656 129.078ZM426.031 122.422C425.984 120.516 425.492 119.07 424.555 118.086C423.617 117.086 422.477 116.586 421.133 116.586C419.695 116.586 418.508 117.109 417.57 118.156C416.633 119.203 416.172 120.625 416.188 122.422H426.031Z"/><line x2="600" y1="81" y2="81" stroke="#000" stroke-width="4"/><line x2="600" y1="160" y2="160" stroke="#000" stroke-width="4"/><line x1="300" x2="300" y1="80" y2="400" stroke="#000" stroke-width="4"/><line x2="600" y1="239" y2="239" stroke="#000" stroke-width="4"/><line x2="600" y1="318" y2="318" stroke="#000" stroke-width="4"/><path fill="#000" d="M20.5156 21.6406H34.25C36.9688 21.6406 38.9922 21.7578 40.3203 21.9922C41.6641 22.2109 42.8594 22.6797 43.9062 23.3984C44.9688 24.1172 45.8516 25.0781 46.5547 26.2812C47.2578 27.4688 47.6094 28.8047 47.6094 30.2891C47.6094 31.8984 47.1719 33.375 46.2969 34.7188C45.4375 36.0625 44.2656 37.0703 42.7812 37.7422C44.875 38.3516 46.4844 39.3906 47.6094 40.8594C48.7344 42.3281 49.2969 44.0547 49.2969 46.0391C49.2969 47.6016 48.9297 49.125 48.1953 50.6094C47.4766 52.0781 46.4844 53.2578 45.2188 54.1484C43.9688 55.0234 42.4219 55.5625 40.5781 55.7656C39.4219 55.8906 36.6328 55.9688 32.2109 56H20.5156V21.6406ZM27.4531 27.3594V35.3047H32C34.7031 35.3047 36.3828 35.2656 37.0391 35.1875C38.2266 35.0469 39.1562 34.6406 39.8281 33.9688C40.5156 33.2812 40.8594 32.3828 40.8594 31.2734C40.8594 30.2109 40.5625 29.3516 39.9688 28.6953C39.3906 28.0234 38.5234 27.6172 37.3672 27.4766C36.6797 27.3984 34.7031 27.3594 31.4375 27.3594H27.4531ZM27.4531 41.0234V50.2109H33.875C36.375 50.2109 37.9609 50.1406 38.6328 50C39.6641 49.8125 40.5 49.3594 41.1406 48.6406C41.7969 47.9062 42.125 46.9297 42.125 45.7109C42.125 44.6797 41.875 43.8047 41.375 43.0859C40.875 42.3672 40.1484 41.8438 39.1953 41.5156C38.2578 41.1875 36.2109 41.0234 33.0547 41.0234H27.4531ZM71.5156 56V52.2734C70.6094 53.6016 69.4141 54.6484 67.9297 55.4141C66.4609 56.1797 64.9062 56.5625 63.2656 56.5625C61.5938 56.5625 60.0938 56.1953 58.7656 55.4609C57.4375 54.7266 56.4766 53.6953 55.8828 52.3672C55.2891 51.0391 54.9922 49.2031 54.9922 46.8594V31.1094H61.5781V42.5469C61.5781 46.0469 61.6953 48.1953 61.9297 48.9922C62.1797 49.7734 62.625 50.3984 63.2656 50.8672C63.9062 51.3203 64.7188 51.5469 65.7031 51.5469C66.8281 51.5469 67.8359 51.2422 68.7266 50.6328C69.6172 50.0078 70.2266 49.2422 70.5547 48.3359C70.8828 47.4141 71.0469 45.1719 71.0469 41.6094V31.1094H77.6328V56H71.5156ZM107.305 56H101.188V52.3438C100.172 53.7656 98.9688 54.8281 97.5781 55.5312C96.2031 56.2188 94.8125 56.5625 93.4062 56.5625C90.5469 56.5625 88.0938 55.4141 86.0469 53.1172C84.0156 50.8047 83 47.5859 83 43.4609C83 39.2422 83.9922 36.0391 85.9766 33.8516C87.9609 31.6484 90.4688 30.5469 93.5 30.5469C96.2812 30.5469 98.6875 31.7031 100.719 34.0156V21.6406H107.305V56ZM89.7266 43.0156C89.7266 45.6719 90.0938 47.5938 90.8281 48.7812C91.8906 50.5 93.375 51.3594 95.2812 51.3594C96.7969 51.3594 98.0859 50.7188 99.1484 49.4375C100.211 48.1406 100.742 46.2109 100.742 43.6484C100.742 40.7891 100.227 38.7344 99.1953 37.4844C98.1641 36.2188 96.8438 35.5859 95.2344 35.5859C93.6719 35.5859 92.3594 36.2109 91.2969 37.4609C90.25 38.6953 89.7266 40.5469 89.7266 43.0156ZM113.211 57.6406L120.734 58.5547C120.859 59.4297 121.148 60.0312 121.602 60.3594C122.227 60.8281 123.211 61.0625 124.555 61.0625C126.273 61.0625 127.562 60.8047 128.422 60.2891C129 59.9453 129.438 59.3906 129.734 58.625C129.938 58.0781 130.039 57.0703 130.039 55.6016V51.9688C128.07 54.6562 125.586 56 122.586 56C119.242 56 116.594 54.5859 114.641 51.7578C113.109 49.5234 112.344 46.7422 112.344 43.4141C112.344 39.2422 113.344 36.0547 115.344 33.8516C117.359 31.6484 119.859 30.5469 122.844 30.5469C125.922 30.5469 128.461 31.8984 130.461 34.6016V31.1094H136.625V53.4453C136.625 56.3828 136.383 58.5781 135.898 60.0312C135.414 61.4844 134.734 62.625 133.859 63.4531C132.984 64.2812 131.812 64.9297 130.344 65.3984C128.891 65.8672 127.047 66.1016 124.812 66.1016C120.594 66.1016 117.602 65.375 115.836 63.9219C114.07 62.4844 113.188 60.6562 113.188 58.4375C113.188 58.2188 113.195 57.9531 113.211 57.6406ZM119.094 43.0391C119.094 45.6797 119.602 47.6172 120.617 48.8516C121.648 50.0703 122.914 50.6797 124.414 50.6797C126.023 50.6797 127.383 50.0547 128.492 48.8047C129.602 47.5391 130.156 45.6719 130.156 43.2031C130.156 40.625 129.625 38.7109 128.562 37.4609C127.5 36.2109 126.156 35.5859 124.531 35.5859C122.953 35.5859 121.648 36.2031 120.617 37.4375C119.602 38.6562 119.094 40.5234 119.094 43.0391ZM157.578 48.0781L164.141 49.1797C163.297 51.5859 161.961 53.4219 160.133 54.6875C158.32 55.9375 156.047 56.5625 153.312 56.5625C148.984 56.5625 145.781 55.1484 143.703 52.3203C142.062 50.0547 141.242 47.1953 141.242 43.7422C141.242 39.6172 142.32 36.3906 144.477 34.0625C146.633 31.7188 149.359 30.5469 152.656 30.5469C156.359 30.5469 159.281 31.7734 161.422 34.2266C163.562 36.6641 164.586 40.4062 164.492 45.4531H147.992C148.039 47.4062 148.57 48.9297 149.586 50.0234C150.602 51.1016 151.867 51.6406 153.383 51.6406C154.414 51.6406 155.281 51.3594 155.984 50.7969C156.688 50.2344 157.219 49.3281 157.578 48.0781ZM157.953 41.4219C157.906 39.5156 157.414 38.0703 156.477 37.0859C155.539 36.0859 154.398 35.5859 153.055 35.5859C151.617 35.5859 150.43 36.1094 149.492 37.1562C148.555 38.2031 148.094 39.625 148.109 41.4219H157.953ZM181.297 31.1094V36.3594H176.797V46.3906C176.797 48.4219 176.836 49.6094 176.914 49.9531C177.008 50.2812 177.203 50.5547 177.5 50.7734C177.812 50.9922 178.188 51.1016 178.625 51.1016C179.234 51.1016 180.117 50.8906 181.273 50.4688L181.836 55.5781C180.305 56.2344 178.57 56.5625 176.633 56.5625C175.445 56.5625 174.375 56.3672 173.422 55.9766C172.469 55.5703 171.766 55.0547 171.312 54.4297C170.875 53.7891 170.57 52.9297 170.398 51.8516C170.258 51.0859 170.188 49.5391 170.188 47.2109V36.3594H167.164V31.1094H170.188V26.1641L176.797 22.3203V31.1094H181.297Z"/><path fill="#000" d="M328.953 219.945V215.727C326.844 215.461 325.125 214.992 323.797 214.32C322.484 213.633 321.344 212.531 320.375 211.016C319.422 209.5 318.867 207.648 318.711 205.461L322.953 204.664C323.281 206.93 323.859 208.594 324.688 209.656C325.875 211.156 327.297 211.992 328.953 212.164V198.734C327.219 198.406 325.445 197.734 323.633 196.719C322.289 195.969 321.25 194.93 320.516 193.602C319.797 192.273 319.438 190.766 319.438 189.078C319.438 186.078 320.5 183.648 322.625 181.789C324.047 180.539 326.156 179.773 328.953 179.492V177.477H331.438V179.492C333.891 179.727 335.836 180.445 337.273 181.648C339.117 183.18 340.227 185.281 340.602 187.953L336.242 188.609C335.992 186.953 335.469 185.688 334.672 184.812C333.891 183.922 332.812 183.336 331.438 183.055V195.219C333.562 195.75 334.969 196.164 335.656 196.461C336.969 197.039 338.039 197.742 338.867 198.57C339.695 199.398 340.328 200.383 340.766 201.523C341.219 202.664 341.445 203.898 341.445 205.227C341.445 208.148 340.516 210.586 338.656 212.539C336.797 214.492 334.391 215.539 331.438 215.68V219.945H328.953ZM328.953 183.008C327.312 183.258 326.016 183.914 325.062 184.977C324.125 186.039 323.656 187.297 323.656 188.75C323.656 190.188 324.055 191.391 324.852 192.359C325.664 193.328 327.031 194.102 328.953 194.68V183.008ZM331.438 212.164C333.078 211.961 334.43 211.25 335.492 210.031C336.57 208.812 337.109 207.305 337.109 205.508C337.109 203.977 336.727 202.75 335.961 201.828C335.211 200.891 333.703 200.055 331.438 199.32V212.164ZM367.883 210.945V215H345.172C345.141 213.984 345.305 213.008 345.664 212.07C346.242 210.523 347.164 209 348.43 207.5C349.711 206 351.555 204.266 353.961 202.297C357.695 199.234 360.219 196.812 361.531 195.031C362.844 193.234 363.5 191.539 363.5 189.945C363.5 188.273 362.898 186.867 361.695 185.727C360.508 184.57 358.953 183.992 357.031 183.992C355 183.992 353.375 184.602 352.156 185.82C350.938 187.039 350.32 188.727 350.305 190.883L345.969 190.438C346.266 187.203 347.383 184.742 349.32 183.055C351.258 181.352 353.859 180.5 357.125 180.5C360.422 180.5 363.031 181.414 364.953 183.242C366.875 185.07 367.836 187.336 367.836 190.039C367.836 191.414 367.555 192.766 366.992 194.094C366.43 195.422 365.492 196.82 364.18 198.289C362.883 199.758 360.719 201.773 357.688 204.336C355.156 206.461 353.531 207.906 352.812 208.672C352.094 209.422 351.5 210.18 351.031 210.945H367.883ZM388.32 215H384.102V188.117C383.086 189.086 381.75 190.055 380.094 191.023C378.453 191.992 376.977 192.719 375.664 193.203V189.125C378.023 188.016 380.086 186.672 381.852 185.094C383.617 183.516 384.867 181.984 385.602 180.5H388.32V215ZM399.43 185.141V181.086H421.672V184.367C419.484 186.695 417.312 189.789 415.156 193.648C413.016 197.508 411.359 201.477 410.188 205.555C409.344 208.43 408.805 211.578 408.57 215H404.234C404.281 212.297 404.812 209.031 405.828 205.203C406.844 201.375 408.297 197.688 410.188 194.141C412.094 190.578 414.117 187.578 416.258 185.141H399.43ZM428.234 215V210.195H433.039V215H428.234ZM439.859 207.055L443.914 206.68C444.258 208.586 444.914 209.969 445.883 210.828C446.852 211.688 448.094 212.117 449.609 212.117C450.906 212.117 452.039 211.82 453.008 211.227C453.992 210.633 454.797 209.844 455.422 208.859C456.047 207.859 456.57 206.516 456.992 204.828C457.414 203.141 457.625 201.422 457.625 199.672C457.625 199.484 457.617 199.203 457.602 198.828C456.758 200.172 455.602 201.266 454.133 202.109C452.68 202.938 451.102 203.352 449.398 203.352C446.555 203.352 444.148 202.32 442.18 200.258C440.211 198.195 439.227 195.477 439.227 192.102C439.227 188.617 440.25 185.812 442.297 183.688C444.359 181.562 446.938 180.5 450.031 180.5C452.266 180.5 454.305 181.102 456.148 182.305C458.008 183.508 459.414 185.227 460.367 187.461C461.336 189.68 461.82 192.898 461.82 197.117C461.82 201.508 461.344 205.008 460.391 207.617C459.438 210.211 458.016 212.188 456.125 213.547C454.25 214.906 452.047 215.586 449.516 215.586C446.828 215.586 444.633 214.844 442.93 213.359C441.227 211.859 440.203 209.758 439.859 207.055ZM457.133 191.891C457.133 189.469 456.484 187.547 455.188 186.125C453.906 184.703 452.359 183.992 450.547 183.992C448.672 183.992 447.039 184.758 445.648 186.289C444.258 187.82 443.562 189.805 443.562 192.242C443.562 194.43 444.219 196.211 445.531 197.586C446.859 198.945 448.492 199.625 450.43 199.625C452.383 199.625 453.984 198.945 455.234 197.586C456.5 196.211 457.133 194.312 457.133 191.891ZM466.578 207.055L470.633 206.68C470.977 208.586 471.633 209.969 472.602 210.828C473.57 211.688 474.812 212.117 476.328 212.117C477.625 212.117 478.758 211.82 479.727 211.227C480.711 210.633 481.516 209.844 482.141 208.859C482.766 207.859 483.289 206.516 483.711 204.828C484.133 203.141 484.344 201.422 484.344 199.672C484.344 199.484 484.336 199.203 484.32 198.828C483.477 200.172 482.32 201.266 480.852 202.109C479.398 202.938 477.82 203.352 476.117 203.352C473.273 203.352 470.867 202.32 468.898 200.258C466.93 198.195 465.945 195.477 465.945 192.102C465.945 188.617 466.969 185.812 469.016 183.688C471.078 181.562 473.656 180.5 476.75 180.5C478.984 180.5 481.023 181.102 482.867 182.305C484.727 183.508 486.133 185.227 487.086 187.461C488.055 189.68 488.539 192.898 488.539 197.117C488.539 201.508 488.062 205.008 487.109 207.617C486.156 210.211 484.734 212.188 482.844 213.547C480.969 214.906 478.766 215.586 476.234 215.586C473.547 215.586 471.352 214.844 469.648 213.359C467.945 211.859 466.922 209.758 466.578 207.055ZM483.852 191.891C483.852 189.469 483.203 187.547 481.906 186.125C480.625 184.703 479.078 183.992 477.266 183.992C475.391 183.992 473.758 184.758 472.367 186.289C470.977 187.82 470.281 189.805 470.281 192.242C470.281 194.43 470.938 196.211 472.25 197.586C473.578 198.945 475.211 199.625 477.148 199.625C479.102 199.625 480.703 198.945 481.953 197.586C483.219 196.211 483.852 194.312 483.852 191.891Z"/><line x2="600" y1="2" y2="2" stroke="#000" stroke-width="4"/><line x2="600" y1="397" y2="397" stroke="#000" stroke-width="4"/></g><rect width="596" height="396" x="2" y="2" stroke="#000" stroke-width="4" rx="18"/><rect width="9" height="9" x="590.5" y="231.5" fill="#70CD35" rx="3.5"/><rect width="9" height="9" x="590.5" y="231.5" stroke="#000" rx="3.5"/><path stroke="#70CD35" stroke-width="4" d="M310 160H588C593.523 160 598 164.477 598 170V237C598 238.105 597.105 239 596 239H310C304.477 239 300 234.523 300 229V170C300 164.477 304.477 160 310 160Z"/><path stroke="#70CD35" stroke-width="4" d="M306 160H598V237C598 238.105 597.105 239 596 239H306C302.686 239 300 236.314 300 233V166C300 162.686 302.686 160 306 160Z"/><g clip-path="url(#clip2_326_1564)"><rect width="68" height="40" x="298" y="113" fill="#70CD35" rx="4"/><path fill="#fff" d="M313.922 144V134.297L305.094 121.094H308.781L313.297 128C314.13 129.292 314.906 130.583 315.625 131.875C316.312 130.677 317.146 129.328 318.125 127.828L322.562 121.094H326.094L316.953 134.297V144H313.922ZM324.469 135.703C324.469 132.63 325.323 130.354 327.031 128.875C328.458 127.646 330.198 127.031 332.25 127.031C334.531 127.031 336.396 127.781 337.844 129.281C339.292 130.771 340.016 132.833 340.016 135.469C340.016 137.604 339.693 139.286 339.047 140.516C338.411 141.734 337.479 142.682 336.25 143.359C335.031 144.036 333.698 144.375 332.25 144.375C329.927 144.375 328.047 143.63 326.609 142.141C325.182 140.651 324.469 138.505 324.469 135.703ZM327.359 135.703C327.359 137.828 327.823 139.422 328.75 140.484C329.677 141.536 330.844 142.062 332.25 142.062C333.646 142.062 334.807 141.531 335.734 140.469C336.661 139.406 337.125 137.786 337.125 135.609C337.125 133.557 336.656 132.005 335.719 130.953C334.792 129.891 333.635 129.359 332.25 129.359C330.844 129.359 329.677 129.885 328.75 130.938C327.823 131.99 327.359 133.578 327.359 135.703ZM354.203 144V141.562C352.911 143.438 351.156 144.375 348.938 144.375C347.958 144.375 347.042 144.188 346.188 143.812C345.344 143.438 344.714 142.969 344.297 142.406C343.891 141.833 343.604 141.135 343.438 140.312C343.323 139.76 343.266 138.885 343.266 137.688V127.406H346.078V136.609C346.078 138.078 346.135 139.068 346.25 139.578C346.427 140.318 346.802 140.901 347.375 141.328C347.948 141.745 348.656 141.953 349.5 141.953C350.344 141.953 351.135 141.74 351.875 141.312C352.615 140.875 353.135 140.286 353.438 139.547C353.75 138.797 353.906 137.714 353.906 136.297V127.406H356.719V144H354.203Z"/></g></g><defs><clipPath id="clip0_326_1564"><rect width="600" height="400" fill="#fff"/></clipPath><clipPath id="clip1_326_1564"><rect width="600" height="400" fill="#fff" rx="20"/></clipPath><clipPath id="clip2_326_1564"><rect width="68" height="40" x="298" y="113" fill="#fff" rx="4"/></clipPath></defs></svg>