<svg xmlns="http://www.w3.org/2000/svg" width="88" height="60" fill="none" viewBox="0 0 88 60"><path stroke="#70CD35" stroke-linecap="round" stroke-width="2" d="M2 57.54C2.52685 57.54 5.26523 57.4521 10.8562 56.6757C14.0248 56.2357 17.6866 54.701 23.3888 51.9695C29.091 49.238 36.6768 45.1002 43.8085 40.2556C50.9401 35.411 57.3878 29.985 62.6575 24.9622C67.9271 19.9393 71.8234 15.4842 74.2595 12.5399C77.5535 8.29727 78.9404 5.87889 79.7633 4.09475C80.0832 3.39128 80.2048 3.09776 80.2128 2.85693"/><path stroke="#70CD35" stroke-linecap="round" stroke-width="2" d="M80.4602 2.26245C80.4148 2.26245 78.6624 2.34531 74.5566 2.85759C72.1799 3.28701 69.208 4.06048 67.4742 4.54316C65.7403 5.02584 65.3346 5.19429 64.5791 5.67933"/><path stroke="#70CD35" stroke-linecap="round" stroke-width="2" d="M80.958 2.00054C80.958 1.97787 81.1265 2.67087 81.7631 4.41199C82.2314 5.44842 82.9943 6.79525 83.6623 8.2217C84.3302 9.64815 84.8802 11.1134 85.5119 13.4071"/></svg>